<?xml version="1.0" encoding="utf-8"?>
<!-- Generator: Adobe Illustrator 26.0.1, SVG Export Plug-In . SVG Version: 6.00 Build 0)  -->
<svg version="1.1" id="Calque_1" xmlns="http://www.w3.org/2000/svg" xmlns:xlink="http://www.w3.org/1999/xlink" x="0px" y="0px"
	 viewBox="0 0 372 417" style="enable-background:new 0 0 372 417;" xml:space="preserve">
<style type="text/css">
	.st0{fill:#254CA0;}
	.st1{fill:#495057;}
</style>
<g>
	<path class="st0" d="M173.2,2.5C172.5,4,171.2,5,170,5c-2,0-15,12.3-15,14.1c0,0.5-0.6,0.9-1.3,0.9c-1.3,0-13.6,12.2-20.4,20.2
		c-1.8,2.1-3.6,3.8-4,3.8c-1,0-39.3,39.1-39.3,40.1c0,0.4-0.7,0.9-1.5,1.3c-2.2,0.8-2.2,28.9,0,28.4c0.8-0.2,22.3-21.1,47.8-46.6
		c31.9-31.8,47-46.2,48.4-46.2c1.3,0,5.4,3,10.1,7.5l8,7.6l14.7-0.3l14.7-0.3l-13.7-13.8C211,14.2,204.4,8,203.9,8
		c-0.4,0-1.2-0.6-1.6-1.4c-0.4-0.8-1.9-1.6-3.3-1.8c-1.7-0.2-2.6-1-2.8-2.6c-0.3-2.1-0.7-2.2-11.1-2.2C174.6,0,174.3,0.1,173.2,2.5z
		"/>
	<path class="st1" d="M159.7,55.8c-8,8-9.6,10.1-8.4,11c1,0.8,21.2,1.2,74.1,1.4l72.8,0.3l2.4,2.8c2.2,2.5,2.4,3.7,2.4,12
		c0,10.4,0.3,10.9,10.5,21c10.2,10,10.4,10.2,11.6,9c1.7-1.7,0.8-43.5-0.9-45.6c-0.8-0.9-1.1-2.5-0.7-3.6
		c0.9-3.1-7.3-11.3-14.9-15.1l-6.3-3h-66.4h-66.4L159.7,55.8z"/>
	<path class="st0" d="M62.1,49.2c-5.7,2.6-12.4,9.4-15,15.3C45,69.2,45,70.3,45,134.7v65.4l2.6,3.5c1.5,1.9,3.3,3.4,4,3.4
		c0.8,0,1.9,1.1,2.4,2.4c0.8,2.1,8.8,9.6,10.4,9.6c0.3,0,0.6-31.8,0.6-70.7c0-63.3,0.2-71,1.6-74.3c2.4-5.3,6.5-7,17.1-7h8.6
		l10.1-10l10.1-10l-23,0.1C68.7,47.2,66.1,47.4,62.1,49.2z"/>
	<path class="st1" d="M157.2,78.2c-0.9,0.9-1.2,8.8-1.2,29.4c0,15.5-0.3,28.9-0.6,29.8c-0.5,1.4-3.7,1.6-25.5,1.6
		c-26.3,0-30.8,0.7-35.2,5.2c-1,1-2.2,1.8-2.8,1.8c-0.5,0-2,2.4-3.4,5.4c-2.5,5.4-2.5,5.7-2.5,35v29.4l2.6,5.2
		c1.5,3,4.2,6.3,6.6,8.1l4.1,2.9H132h32.7l5-3.6c3.7-2.8,5.5-5,7.1-9.1c2.2-5.3,2.2-5.7,2.2-72.2c0-36.8-0.3-67.6-0.6-68.5
		c-0.5-1.3-2.4-1.6-10.3-1.6C161.9,77,158,77.4,157.2,78.2z M155.4,164.6c1,2.6,0.7,41.8-0.4,43.4c-1.4,2.3-40.1,2.8-43.6,0.5
		L109,207v-19.8c0-10.8,0.3-20.7,0.6-22c0.6-2.2,0.7-2.2,22.9-2.2C151.9,163,154.9,163.2,155.4,164.6z"/>
	<path class="st1" d="M245.4,78.5c-0.4,1,15.9,18,51,53.1c56.5,56.4,54.3,53.7,49.4,60.7c-1.3,1.8-2.7,3.4-3.3,3.6
		c-0.5,0.2-2.5,1.9-4.2,3.7l-3.3,3.2v15c0,8.3,0.4,15.3,0.8,15.6c1.5,0.9,31-29.6,31.8-32.8c0.4-1.6,1.5-3.1,2.5-3.3
		c1.7-0.5,1.9-1.6,1.9-10.9c0-8.2-0.3-10.4-1.4-10.4c-0.7,0-2.6-2.5-4.2-5.6c-1.5-3-3.6-6-4.5-6.5c-1-0.5-9-8.2-17.8-17.2
		c-8.8-8.9-16.7-16.9-17.5-17.7c-0.8-0.8-2-2-2.6-2.7c-1.5-1.6-9.8-9.9-15.1-15.1c-2.4-2.3-5.2-5.1-6.2-6.1
		c-1.1-1.1-2.3-2.4-2.9-2.9c-0.5-0.5-1.9-1.9-3-3c-1.1-1.1-2.4-2.5-3-3c-1.2-1.4-8-8.2-9.1-9.2c-0.5-0.4-1.7-1.6-2.7-2.7
		c-6.9-7.2-7.3-7.3-22.2-7.3C248.4,77,245.8,77.3,245.4,78.5z"/>
	<path class="st0" d="M27.8,145.8c-3.1,3.4-6.1,6.2-6.5,6.2c-1.2,0-14.9,14.2-15.6,16.2c-0.3,1-1.1,1.8-1.7,1.8c-0.5,0-1,0.8-1,1.9
		c0,1-0.7,2.4-1.5,3.1c-1.2,1-1.5,3.6-1.5,11.6c0,5.6,0.4,10.5,0.9,10.8c0.5,0.4,1.9,2.5,3,4.9c1.4,2.8,16.2,18.3,46.4,48.5
		L94.6,295h14.7c8.1,0,14.7-0.3,14.7-0.8c0-0.4-23-23.7-51-51.7c-32.6-32.5-51.5-52.1-52.2-54.1c-1.3-3.8,0.1-6.3,8.1-13.7l5.2-4.8
		l-0.3-15.1l-0.3-15.1L27.8,145.8z"/>
	<path class="st0" d="M207.7,141.7c-1.6,0.7-3.7,1.3-4.5,1.3c-0.9,0-3.8,2.3-6.4,5.1l-4.8,5.2v70.9v70.9l9.8-0.3l9.7-0.3l0.2-29.5
		c0.3-28.7,0.4-29.5,2.4-31.3c1.9-1.5,4.7-1.7,24.8-1.7c29.5,0,32.1-0.4,36.5-4.6c2-1.9,4.4-5.5,5.6-8c1.9-4.3,2-6.6,2-33.3
		c0-23.7-0.3-29.1-1.5-30.7c-0.8-1-1.5-2.6-1.5-3.5c0-2.7-6.6-8.4-11.3-9.7C262.5,140.3,211.9,140,207.7,141.7z M259.6,164.1
		c1.7,1.9,1.9,3.9,1.9,22.4c0,20.2,0,20.2-2.5,22.8l-2.5,2.7h-21.2c-20,0-21.3-0.1-22.3-1.9c-1.5-2.9-1.4-45.3,0.2-46.9
		c0.9-0.9,7.3-1.2,22.8-1.2C256.8,162,257.8,162.1,259.6,164.1z"/>
	<path class="st1" d="M303.5,154.2c-0.3,0.7-0.6,33.8-0.7,73.5l-0.3,72.2l-2.3,2.3c-2,2-3.5,2.4-12.7,2.8l-10.5,0.5l-9,9
		c-5,4.9-8.9,9.6-8.8,10.5c0.3,1.3,3.5,1.5,21.7,1.8c11.7,0.1,21.9-0.2,22.5-0.6c0.6-0.5,2.2-1.2,3.6-1.5c1.4-0.4,4.1-2,6-3.7
		c1.8-1.6,3.6-3,4-3c1,0,6-8,6-9.5c0-0.7,0.7-2.6,1.5-4.1c1.3-2.5,1.5-12.2,1.5-67.5v-64.7l-9.7-9.6
		C306.9,153.3,304.4,151.7,303.5,154.2z"/>
	<path class="st1" d="M235,302.5L188.5,349h-4.3c-3.7,0-4.7-0.5-8-4.1c-2-2.3-5-5.4-6.6-7l-2.8-2.9h-13.3c-19.1,0-19.1-0.1-2.9,16.2
		c15,15.1,19.6,18.8,23.6,18.8c1.5,0,2.8,0.4,2.8,1s3.1,1,7.4,1c4.1,0,7.8-0.5,8.1-1c0.3-0.6,1.6-1,2.9-1c1.3,0,3.3-0.9,4.6-2
		s2.6-2,3.1-2c0.9,0,78.9-78.2,80.1-80.4c1.2-2.1,0.6-28.9-0.7-29.3C281.9,256.1,260.5,276.9,235,302.5z"/>
	<path class="st0" d="M45,282c0,20.6,0.2,22.7,2.1,26.7c1.1,2.4,2.5,4.3,3,4.3s0.9,0.5,0.9,1.2c0,1.7,5.1,6.8,6.7,6.8
		c0.8,0,1.6,0.7,1.9,1.5c0.4,0.8,1.6,1.5,2.8,1.5c1.1,0.1,3.2,0.7,4.6,1.5c2.1,1.2,13,1.4,67,1.5h64.5l5-4.9
		c2.7-2.6,6.9-6.7,9.3-8.9c8.2-7.7,12.6-7.2-68.9-7.5c-61-0.2-72.9-0.4-74.3-1.6c-3-2.5-4.6-8-4.6-16.2c0-7.6-0.1-7.9-3.7-12.1
		c-4.2-4.8-10.6-11.3-14.1-14.2l-2.2-1.9V282z"/>
	<path class="st1" d="M69.6,396.2c0,2-0.3,3.9-1,5.6c-0.7,1.7-1.6,3.1-2.8,4.4c-1.2,1.2-2.7,2.2-4.4,2.8c-1.7,0.7-3.6,1-5.6,1H45.3
		v-27.7h10.4c2.1,0,4,0.3,5.6,1c1.7,0.7,3.2,1.6,4.4,2.8c1.2,1.2,2.2,2.7,2.8,4.4C69.2,392.3,69.6,394.1,69.6,396.2z M65,396.2
		c0-1.6-0.2-3-0.7-4.3c-0.4-1.3-1-2.3-1.8-3.2c-0.8-0.9-1.8-1.5-2.9-2c-1.1-0.5-2.4-0.7-3.8-0.7h-5.9v20.4h5.9
		c1.4,0,2.7-0.2,3.8-0.7c1.1-0.5,2.1-1.1,2.9-2c0.8-0.9,1.4-2,1.8-3.2C64.8,399.2,65,397.8,65,396.2z M90.6,390.4l-10.8,25.2
		c-0.1,0.3-0.3,0.5-0.5,0.7c-0.2,0.2-0.5,0.2-0.9,0.2h-3.1l3.6-7.8l-8-18.3h3.6c0.3,0,0.6,0.1,0.8,0.2c0.2,0.2,0.3,0.3,0.4,0.6
		l4.7,11.1c0.1,0.3,0.2,0.6,0.3,1c0.1,0.3,0.2,0.6,0.3,1c0.1-0.3,0.2-0.7,0.3-1c0.1-0.3,0.2-0.6,0.3-1l4.5-11.1
		c0.1-0.2,0.2-0.4,0.4-0.6c0.2-0.2,0.5-0.2,0.7-0.2H90.6z M96.7,393c0.4-0.4,0.9-0.8,1.3-1.2c0.5-0.4,0.9-0.7,1.5-0.9
		c0.5-0.3,1.1-0.5,1.6-0.6c0.6-0.1,1.2-0.2,1.9-0.2c1.1,0,2,0.2,2.8,0.5c0.8,0.4,1.5,0.9,2.1,1.5c0.6,0.7,1,1.4,1.3,2.4
		c0.3,0.9,0.4,1.9,0.4,3V410h-4.1v-12.5c0-1.3-0.3-2.3-0.9-3.1c-0.6-0.7-1.5-1.1-2.8-1.1c-0.9,0-1.8,0.2-2.6,0.6
		c-0.8,0.4-1.5,1-2.2,1.7V410h-4.1v-19.6h2.5c0.6,0,0.9,0.3,1.1,0.8L96.7,393z M124.5,401.4c-1.5,0.1-2.7,0.2-3.7,0.4
		c-1,0.2-1.8,0.4-2.5,0.7c-0.6,0.3-1.1,0.6-1.4,1c-0.3,0.4-0.4,0.8-0.4,1.3c0,0.5,0.1,0.9,0.2,1.2c0.2,0.3,0.4,0.6,0.6,0.8
		c0.3,0.2,0.6,0.4,0.9,0.5c0.4,0.1,0.7,0.1,1.2,0.1c1.1,0,2-0.2,2.8-0.6c0.8-0.4,1.5-1,2.3-1.8V401.4z M113.5,393.1
		c2.2-2.1,4.9-3.1,7.9-3.1c1.1,0,2.1,0.2,3,0.6c0.9,0.4,1.6,0.9,2.2,1.5c0.6,0.7,1.1,1.5,1.4,2.4c0.3,0.9,0.5,1.9,0.5,3V410h-1.8
		c-0.4,0-0.7-0.1-0.9-0.2c-0.2-0.1-0.4-0.4-0.5-0.7l-0.4-1.6c-0.5,0.4-1,0.9-1.5,1.2c-0.5,0.3-1,0.6-1.5,0.9
		c-0.5,0.2-1.1,0.4-1.7,0.5c-0.6,0.1-1.2,0.2-2,0.2c-0.8,0-1.5-0.1-2.2-0.3c-0.7-0.2-1.3-0.5-1.8-1c-0.5-0.4-0.9-1-1.2-1.7
		c-0.3-0.7-0.4-1.4-0.4-2.3c0-0.8,0.2-1.5,0.6-2.2c0.4-0.7,1.1-1.4,2-1.9c0.9-0.6,2.2-1,3.7-1.4c1.5-0.4,3.4-0.6,5.6-0.6v-1.3
		c0-1.4-0.3-2.5-0.9-3.1c-0.6-0.7-1.5-1-2.7-1c-0.8,0-1.5,0.1-2,0.3c-0.5,0.2-1,0.4-1.4,0.6c-0.4,0.2-0.7,0.4-1.1,0.7
		c-0.3,0.2-0.6,0.3-1,0.3c-0.3,0-0.5-0.1-0.7-0.2c-0.2-0.2-0.4-0.3-0.5-0.6L113.5,393.1z M133,410v-19.6h2.5c0.6,0,0.9,0.3,1.1,0.8
		l0.3,1.7c0.4-0.4,0.7-0.8,1.1-1.1c0.4-0.3,0.8-0.6,1.2-0.9c0.4-0.3,0.9-0.5,1.4-0.6c0.5-0.1,1.1-0.2,1.7-0.2c0.6,0,1.2,0.1,1.7,0.3
		c0.5,0.2,1,0.4,1.4,0.8c0.4,0.3,0.8,0.7,1.1,1.2c0.3,0.5,0.5,1,0.7,1.6c0.3-0.7,0.7-1.3,1.1-1.7c0.4-0.5,0.9-0.9,1.5-1.2
		c0.5-0.3,1.1-0.5,1.7-0.7c0.6-0.2,1.3-0.2,1.9-0.2c1,0,2,0.2,2.8,0.5c0.8,0.3,1.5,0.8,2.1,1.5c0.6,0.6,1,1.4,1.3,2.3
		c0.3,0.9,0.4,2,0.4,3.1V410h-4.1v-12.5c0-1.4-0.3-2.4-0.9-3.1c-0.6-0.7-1.5-1.1-2.6-1.1c-0.5,0-1,0.1-1.5,0.3
		c-0.5,0.2-0.9,0.4-1.2,0.8c-0.3,0.3-0.6,0.8-0.8,1.3c-0.2,0.5-0.3,1.1-0.3,1.8V410h-4.1v-12.5c0-1.4-0.3-2.5-0.9-3.1
		c-0.6-0.7-1.4-1-2.5-1c-0.8,0-1.5,0.2-2.1,0.6c-0.7,0.4-1.3,0.9-1.8,1.6V410H133z M168.8,390.4V410h-4.1v-19.6H168.8z M169.4,384.5
		c0,0.4-0.1,0.7-0.2,1.1c-0.1,0.3-0.3,0.6-0.6,0.9c-0.3,0.2-0.6,0.4-0.9,0.6c-0.3,0.1-0.7,0.2-1.1,0.2c-0.4,0-0.7-0.1-1.1-0.2
		c-0.3-0.2-0.6-0.4-0.8-0.6c-0.2-0.3-0.4-0.6-0.6-0.9c-0.1-0.3-0.2-0.7-0.2-1.1c0-0.4,0.1-0.7,0.2-1.1c0.2-0.3,0.4-0.6,0.6-0.9
		c0.2-0.3,0.5-0.5,0.8-0.6c0.3-0.2,0.7-0.2,1.1-0.2c0.4,0,0.7,0.1,1.1,0.2c0.3,0.1,0.6,0.3,0.9,0.6c0.3,0.2,0.5,0.5,0.6,0.9
		C169.4,383.8,169.4,384.1,169.4,384.5z M187.4,394.3c-0.1,0.2-0.2,0.3-0.4,0.4c-0.1,0.1-0.3,0.1-0.5,0.1c-0.2,0-0.4-0.1-0.7-0.2
		c-0.2-0.2-0.5-0.3-0.8-0.5c-0.3-0.2-0.7-0.4-1.2-0.5c-0.5-0.2-1-0.2-1.7-0.2c-0.9,0-1.7,0.2-2.4,0.5c-0.7,0.3-1.2,0.8-1.7,1.4
		c-0.4,0.6-0.8,1.3-1,2.2c-0.2,0.8-0.3,1.8-0.3,2.9c0,1.1,0.1,2.1,0.4,2.9c0.2,0.9,0.6,1.6,1,2.2c0.5,0.6,1,1,1.7,1.3
		c0.7,0.3,1.4,0.5,2.2,0.5c0.8,0,1.4-0.1,1.9-0.3c0.5-0.2,0.9-0.4,1.2-0.6c0.3-0.2,0.6-0.4,0.8-0.6c0.2-0.2,0.5-0.3,0.8-0.3
		c0.3,0,0.6,0.1,0.8,0.4l1.2,1.5c-0.5,0.6-1,1.1-1.6,1.5c-0.6,0.4-1.2,0.7-1.8,1c-0.6,0.2-1.3,0.4-2,0.5c-0.7,0.1-1.4,0.2-2.1,0.2
		c-1.2,0-2.4-0.2-3.4-0.7c-1.1-0.5-2-1.1-2.8-2c-0.8-0.9-1.4-1.9-1.9-3.2c-0.4-1.3-0.7-2.7-0.7-4.3c0-1.4,0.2-2.8,0.6-4
		c0.4-1.2,1-2.3,1.8-3.2c0.8-0.9,1.8-1.6,2.9-2.1c1.2-0.5,2.5-0.8,4-0.8c1.4,0,2.7,0.2,3.7,0.7c1.1,0.5,2.1,1.1,2.9,2L187.4,394.3z"
		/>
	<path class="st0" d="M210.2,396.4c1,0,1.9-0.1,2.6-0.4c0.8-0.3,1.4-0.6,1.9-1.1c0.5-0.5,0.9-1,1.2-1.7c0.3-0.7,0.4-1.4,0.4-2.2
		c0-0.8-0.1-1.5-0.4-2.2c-0.2-0.6-0.6-1.2-1.1-1.6c-0.5-0.4-1.1-0.8-1.9-1c-0.8-0.2-1.6-0.4-2.7-0.4h-4.1v10.6H210.2z M210.2,382.3
		c1.8,0,3.4,0.2,4.7,0.6c1.3,0.4,2.4,1,3.3,1.8c0.9,0.8,1.5,1.7,1.9,2.7c0.4,1.1,0.6,2.2,0.6,3.5c0,1.3-0.2,2.5-0.7,3.6
		c-0.4,1.1-1.1,2-2,2.8c-0.9,0.8-2,1.4-3.3,1.8c-1.3,0.4-2.8,0.7-4.6,0.7h-4.1v10h-4.5v-27.7H210.2z M227.4,394
		c0.6-1.2,1.4-2.2,2.2-2.9c0.9-0.7,1.9-1.1,3.1-1.1c0.4,0,0.8,0.1,1.2,0.2c0.4,0.1,0.7,0.2,1,0.4l-0.3,3.1c-0.1,0.2-0.1,0.4-0.2,0.5
		c-0.1,0.1-0.2,0.1-0.4,0.1c-0.2,0-0.5,0-0.8-0.1c-0.4-0.1-0.7-0.1-1.1-0.1c-0.6,0-1.1,0.1-1.5,0.2c-0.4,0.2-0.8,0.4-1.2,0.7
		c-0.3,0.3-0.7,0.7-0.9,1.2s-0.5,1-0.7,1.6V410h-4.1v-19.6h2.4c0.4,0,0.7,0.1,0.9,0.2c0.2,0.2,0.3,0.4,0.3,0.8L227.4,394z
		 M245.1,390.1c1.4,0,2.8,0.2,3.9,0.7c1.2,0.5,2.2,1.1,3,2c0.8,0.9,1.5,1.9,1.9,3.2c0.4,1.2,0.7,2.6,0.7,4.2c0,1.5-0.2,2.9-0.7,4.2
		c-0.4,1.2-1.1,2.3-1.9,3.2c-0.8,0.9-1.8,1.5-3,2c-1.2,0.5-2.5,0.7-3.9,0.7c-1.5,0-2.8-0.2-4-0.7c-1.2-0.5-2.2-1.1-3-2
		c-0.8-0.9-1.5-1.9-1.9-3.2c-0.4-1.2-0.7-2.6-0.7-4.2c0-1.5,0.2-2.9,0.7-4.2c0.4-1.2,1.1-2.3,1.9-3.2c0.8-0.9,1.8-1.5,3-2
		C242.3,390.3,243.7,390.1,245.1,390.1z M245.1,407.1c1.8,0,3.1-0.6,3.9-1.8c0.9-1.2,1.3-2.9,1.3-5.1s-0.4-3.9-1.3-5.1
		c-0.9-1.2-2.2-1.8-3.9-1.8c-1.8,0-3.1,0.6-4,1.8c-0.9,1.2-1.3,2.9-1.3,5.1s0.4,3.9,1.3,5.1C242,406.5,243.3,407.1,245.1,407.1z
		 M272.1,394.3c-0.1,0.2-0.2,0.3-0.4,0.4c-0.1,0.1-0.3,0.1-0.5,0.1c-0.2,0-0.4-0.1-0.7-0.2c-0.2-0.2-0.5-0.3-0.8-0.5
		c-0.3-0.2-0.7-0.4-1.2-0.5c-0.5-0.2-1-0.2-1.7-0.2c-0.9,0-1.7,0.2-2.4,0.5c-0.7,0.3-1.2,0.8-1.7,1.4c-0.4,0.6-0.8,1.3-1,2.2
		c-0.2,0.8-0.3,1.8-0.3,2.9c0,1.1,0.1,2.1,0.4,2.9c0.2,0.9,0.6,1.6,1,2.2c0.5,0.6,1,1,1.7,1.3c0.7,0.3,1.4,0.5,2.2,0.5
		c0.8,0,1.4-0.1,1.9-0.3c0.5-0.2,0.9-0.4,1.2-0.6c0.3-0.2,0.6-0.4,0.8-0.6c0.2-0.2,0.5-0.3,0.8-0.3c0.3,0,0.6,0.1,0.8,0.4l1.2,1.5
		c-0.5,0.6-1,1.1-1.6,1.5s-1.2,0.7-1.8,1c-0.6,0.2-1.3,0.4-2,0.5c-0.7,0.1-1.4,0.2-2.1,0.2c-1.2,0-2.4-0.2-3.4-0.7
		c-1-0.5-2-1.1-2.8-2c-0.8-0.9-1.4-1.9-1.9-3.2c-0.4-1.3-0.7-2.7-0.7-4.3c0-1.4,0.2-2.8,0.6-4c0.4-1.2,1-2.3,1.8-3.2
		c0.8-0.9,1.8-1.6,2.9-2.1c1.2-0.5,2.5-0.8,4-0.8c1.4,0,2.7,0.2,3.7,0.7c1.1,0.5,2.1,1.1,2.9,2L272.1,394.3z M288.8,398
		c0-0.7-0.1-1.3-0.3-1.9c-0.2-0.6-0.5-1.1-0.9-1.6c-0.4-0.4-0.9-0.8-1.4-1c-0.6-0.3-1.2-0.4-2-0.4c-1.5,0-2.7,0.4-3.5,1.3
		c-0.9,0.9-1.4,2.1-1.6,3.6H288.8z M278.9,400.5c0.1,1.1,0.2,2.1,0.5,2.9c0.3,0.8,0.7,1.5,1.2,2c0.5,0.5,1.1,0.9,1.8,1.2
		c0.7,0.3,1.5,0.4,2.3,0.4c0.8,0,1.5-0.1,2.1-0.3c0.6-0.2,1.1-0.4,1.5-0.6c0.4-0.2,0.8-0.4,1.1-0.6c0.3-0.2,0.6-0.3,0.8-0.3
		c0.3,0,0.6,0.1,0.8,0.4l1.2,1.5c-0.5,0.6-1,1.1-1.7,1.5c-0.6,0.4-1.3,0.7-2,1c-0.7,0.2-1.4,0.4-2.1,0.5c-0.7,0.1-1.4,0.2-2.1,0.2
		c-1.4,0-2.6-0.2-3.8-0.7c-1.2-0.5-2.2-1.1-3-2c-0.8-0.9-1.5-2-2-3.3c-0.5-1.3-0.7-2.8-0.7-4.5c0-1.4,0.2-2.6,0.6-3.8
		c0.4-1.2,1-2.2,1.8-3.1c0.8-0.9,1.8-1.6,2.9-2.1c1.2-0.5,2.5-0.8,3.9-0.8c1.2,0,2.3,0.2,3.3,0.6c1,0.4,1.9,1,2.6,1.7
		c0.7,0.8,1.3,1.7,1.7,2.8c0.4,1.1,0.6,2.3,0.6,3.7c0,0.6-0.1,1.1-0.2,1.3c-0.1,0.2-0.4,0.3-0.8,0.3H278.9z M307.7,394
		c-0.1,0.2-0.2,0.3-0.3,0.4s-0.3,0.1-0.5,0.1c-0.2,0-0.5-0.1-0.7-0.2c-0.3-0.1-0.6-0.3-0.9-0.5c-0.3-0.2-0.8-0.3-1.2-0.4
		c-0.5-0.1-1-0.2-1.6-0.2c-0.5,0-1,0.1-1.4,0.2c-0.4,0.1-0.8,0.3-1.1,0.5c-0.3,0.2-0.5,0.5-0.7,0.8c-0.2,0.3-0.2,0.6-0.2,1
		c0,0.5,0.1,0.8,0.4,1.2c0.3,0.3,0.7,0.6,1.1,0.8c0.5,0.2,1,0.4,1.6,0.6c0.6,0.2,1.2,0.4,1.8,0.6c0.6,0.2,1.2,0.4,1.8,0.7
		c0.6,0.3,1.1,0.6,1.6,1c0.5,0.4,0.8,0.9,1.1,1.4c0.3,0.5,0.4,1.2,0.4,2c0,0.9-0.2,1.8-0.5,2.6c-0.3,0.8-0.8,1.5-1.5,2
		s-1.4,1-2.4,1.3c-0.9,0.3-2,0.5-3.3,0.5c-0.7,0-1.3-0.1-2-0.2c-0.6-0.1-1.2-0.3-1.8-0.5c-0.6-0.2-1.1-0.5-1.6-0.8
		c-0.5-0.3-0.9-0.6-1.3-1l1-1.6c0.1-0.2,0.3-0.3,0.4-0.4c0.2-0.1,0.4-0.2,0.7-0.2c0.3,0,0.5,0.1,0.8,0.3c0.3,0.2,0.6,0.4,0.9,0.6
		c0.4,0.2,0.8,0.4,1.3,0.6c0.5,0.2,1.1,0.2,1.9,0.2c0.6,0,1.1-0.1,1.6-0.2c0.4-0.2,0.8-0.4,1.1-0.6c0.3-0.3,0.5-0.5,0.7-0.9
		c0.1-0.3,0.2-0.7,0.2-1.1c0-0.5-0.1-0.9-0.4-1.2c-0.3-0.3-0.7-0.6-1.1-0.8c-0.5-0.2-1-0.4-1.6-0.6c-0.6-0.2-1.2-0.4-1.8-0.6
		c-0.6-0.2-1.2-0.4-1.8-0.7c-0.6-0.3-1.1-0.6-1.6-1c-0.5-0.4-0.8-0.9-1.1-1.5c-0.3-0.6-0.4-1.3-0.4-2.2c0-0.8,0.2-1.5,0.5-2.2
		c0.3-0.7,0.8-1.3,1.4-1.9c0.6-0.5,1.4-1,2.2-1.3c0.9-0.3,1.9-0.5,3.1-0.5c1.3,0,2.5,0.2,3.6,0.6c1.1,0.4,2,1,2.7,1.7L307.7,394z
		 M324,394c-0.1,0.2-0.2,0.3-0.3,0.4c-0.1,0.1-0.3,0.1-0.5,0.1c-0.2,0-0.5-0.1-0.7-0.2c-0.3-0.1-0.6-0.3-0.9-0.5
		c-0.3-0.2-0.8-0.3-1.2-0.4c-0.5-0.1-1-0.2-1.6-0.2c-0.5,0-1,0.1-1.4,0.2c-0.4,0.1-0.8,0.3-1.1,0.5c-0.3,0.2-0.5,0.5-0.7,0.8
		c-0.2,0.3-0.2,0.6-0.2,1c0,0.5,0.1,0.8,0.4,1.2c0.3,0.3,0.7,0.6,1.1,0.8c0.5,0.2,1,0.4,1.6,0.6c0.6,0.2,1.2,0.4,1.8,0.6
		c0.6,0.2,1.2,0.4,1.8,0.7c0.6,0.3,1.1,0.6,1.6,1c0.5,0.4,0.8,0.9,1.1,1.4c0.3,0.5,0.4,1.2,0.4,2c0,0.9-0.2,1.8-0.5,2.6
		c-0.3,0.8-0.8,1.5-1.5,2c-0.6,0.6-1.4,1-2.4,1.3c-0.9,0.3-2,0.5-3.3,0.5c-0.7,0-1.3-0.1-2-0.2c-0.6-0.1-1.2-0.3-1.8-0.5
		c-0.6-0.2-1.1-0.5-1.6-0.8c-0.5-0.3-0.9-0.6-1.3-1l1-1.6c0.1-0.2,0.3-0.3,0.4-0.4c0.2-0.1,0.4-0.2,0.7-0.2c0.3,0,0.5,0.1,0.8,0.3
		c0.3,0.2,0.6,0.4,0.9,0.6c0.4,0.2,0.8,0.4,1.3,0.6c0.5,0.2,1.1,0.2,1.9,0.2c0.6,0,1.1-0.1,1.6-0.2c0.4-0.2,0.8-0.4,1.1-0.6
		c0.3-0.3,0.5-0.5,0.7-0.9c0.1-0.3,0.2-0.7,0.2-1.1c0-0.5-0.1-0.9-0.4-1.2c-0.3-0.3-0.7-0.6-1.1-0.8c-0.5-0.2-1-0.4-1.6-0.6
		c-0.6-0.2-1.2-0.4-1.8-0.6c-0.6-0.2-1.2-0.4-1.8-0.7c-0.6-0.3-1.1-0.6-1.6-1c-0.5-0.4-0.8-0.9-1.1-1.5c-0.3-0.6-0.4-1.3-0.4-2.2
		c0-0.8,0.2-1.5,0.5-2.2c0.3-0.7,0.8-1.3,1.4-1.9c0.6-0.5,1.4-1,2.2-1.3c0.9-0.3,1.9-0.5,3.1-0.5c1.3,0,2.5,0.2,3.6,0.6
		c1.1,0.4,2,1,2.7,1.7L324,394z"/>
</g>
</svg>
